{"title":"BustyBuffy - Lucie Wilde (Lambrusco 08.17.2014) NEW August 17, 2","uid":10792626,"size":404853085,"categoryP":"porn","categoryS":"other","magnet":"?xt=urn:btih:02a7958c7f61471271dba8984b6b68a9c1ec560f&amp;dn=BustyBuffy+-+Lucie+Wilde+%28Lambrusco+08.17.2014%29+NEW+August+17%2C+2&amp;tr=udp%3A%2F%2Ftracker.openbittorrent.com%3A80&amp;tr=udp%3A%2F%2Fopen.demonii.com%3A1337&amp;tr=udp%3A%2F%2Ftracker.coppersurfer.tk%3A6969&amp;tr=udp%3A%2F%2Fexodus.desync.com%3A6969","seeders":0,"leechers":2,"uploader":"vpsr","files":1,"time":1408267369,"description":"BustyBuffy - Lucie Wilde (Lambrusco 08.17.2014) NEW August 17, 2014 [VPSR] MP4\n\n &lt;a href=&quot;\nhttp://s25.postimg.org/l7r4mirof/vlcsnap_2014_08_17_08h15m55s103.png&quot; rel=&quot;nofollow&quot; target=&quot;_NEW&quot;&gt;\nhttp://s25.postimg.org/l7r4mirof/vlcsnap_2014_08_17_08h15m55s103.png&lt;/a&gt;\n\n &lt;a href=&quot;\nhttp://s25.postimg.org/q7okugxb3/Busty_Buffy_Lucie_Wilde_Lambrusco_08_17_2014.jpg&quot; rel=&quot;nofollow&quot; target=&quot;_NEW&quot;&gt;\nhttp://s25.postimg.org/q7okugxb3/Busty_Buffy_Lucie_Wilde_Lambrusco_08_17_2014.jpg&lt;/a&gt;\n\n\nFILE INFO\n\nGeneral\nComplete name                            : BustyBuffy - Lucie Wilde (Lambrusco  08.17.2014)  NEW August 17, 2014  [VPSR] MP4.mp4\nFormat                                   : MPEG-4\nFormat profile                           : Base Media\nCodec ID                                 : isom\nFile size                                : 386 MiB\nDuration                                 : 25mn 2s\nOverall bit rate mode                    : Variable\nOverall bit rate                         : 2 156 Kbps\nWriting application                      : Lavf51.12.1\n\nVideo\nID                                       : 1\nFormat                                   : MPEG-4 Visual\nFormat profile                           : Simple@L1\nFormat settings, BVOP                    : No\nFormat settings, QPel                    : No\nFormat settings, GMC                     : No warppoints\nFormat settings, Matrix                  : Default (H.263)\nCodec ID                                 : 20\nDuration                                 : 25mn 2s\nBit rate                                 : 2 000 Kbps\nWidth                                    : 960 pixels\nHeight                                   : 540 pixels\nDisplay aspect ratio                     : 16:9\nFrame rate mode                          : Constant\nFrame rate                               : 25.000 fps\nColor space                              : YUV\nChroma subsampling                       : 4:2:0\nBit depth                                : 8 bits\nScan type                                : Progressive\nCompression mode                         : Lossy\nBits/(Pixel*Frame)                       : 0.154\nStream size                              : 358 MiB (93%)\nWriting library                          : Lavc51.40.4\n\nAudio\nID                                       : 2\nFormat                                   : AAC\nFormat/Info                              : Advanced Audio Codec\nFormat profile                           : LC\nCodec ID                                 : 40\nDuration                                 : 25mn 2s\nBit rate mode                            : Variable\nBit rate                                 : 152 Kbps\nChannel(s)                               : 2 channels\nChannel positions                        : Front: L R\nSampling rate                            : 44.1 KHz\nCompression mode                         : Lossy\nStream size                              : 27.2 MiB (7%)\n\n","torrent":{"xt":"urn:btih:02a7958c7f61471271dba8984b6b68a9c1ec560f","amp;dn":"BustyBuffy+-+Lucie+Wilde+%28Lambrusco+08.17.2014%29+NEW+August+17%2C+2","amp;tr":["udp%3A%2F%2Ftracker.openbittorrent.com%3A80","udp%3A%2F%2Fopen.demonii.com%3A1337","udp%3A%2F%2Ftracker.coppersurfer.tk%3A6969","udp%3A%2F%2Fexodus.desync.com%3A6969"],"infoHash":"02a7958c7f61471271dba8984b6b68a9c1ec560f","infoHashBuffer":{"type":"Buffer","data":[2,167,149,140,127,97,71,18,113,219,168,152,75,107,104,169,193,236,86,15]},"announce":[],"urlList":[]}}